<?xml version="1.0" encoding="UTF-8"?>
<svg id="Vrstva_1" data-name="Vrstva 1" xmlns="http://www.w3.org/2000/svg" viewBox="0 0 500 335.39">
  <defs>
    <style>
      .cls-1 {
        fill: #020202;
      }
    </style>
  </defs>
  <path class="cls-1" d="M188.8,185.49c14.08-10.29,26.13-9.25,38.44,3.16,5.02,5.07,10.6,10.8,17.15,10.16,11.49-.97,20.95-2.72,29.39-8.44,17.77-12.04,35.49-14.86,56.09-5.42,21.54,9.88,22.81,8.1,37.56-10.99,10.7-13.85,19.28-15.06,29.36-1.45,7.17,9.68,12.7,7.02,20.42,2.38,10.22-6.14,17.78-17.08,31.49-17.4,3.76-.09,7.47-7.15,8.2-12.57,.53-3.98-2.08-7.47-5.51-9.16-5.77-2.84-7.35,3.54-10.63,6.07-7.81,6.02-15.64,12.04-23.15,18.46-4.97,4.25-8.47,3.53-13.57-.54-19.4-15.49-27.29-14.82-42.71,4.99-8.37,10.74-17.64,13.06-28.52,7.21-18.74-10.08-36.56-9.22-53.93,2.79-18.25,12.62-34.86,13.21-52.55-2.71-13.35-12.01-22.06-11.47-35.61-.7-32.08,25.49-56.47,20.5-85.67,.04-15.74-11.02-33.32-16.67-51.98-18.79-4.16-.47-9.95-1.52-10.04,5.55-.07,5.37,4.26,6.56,8.7,6.48,17.86-.33,33.12,7.64,47.19,17.73,29.55,21.2,59.36,25.45,89.88,3.15Z"/>
</svg>