<?xml version="1.0" encoding="UTF-8"?>
<svg id="Vrstva_1" data-name="Vrstva 1" xmlns="http://www.w3.org/2000/svg" viewBox="0 0 500 335.39">
  <defs>
    <style>
      .cls-1 {
        fill: #020202;
      }
    </style>
  </defs>
  <path class="cls-1" d="M379.12,106.38c-18.66,16.25-37.92,31.71-59.4,43.63-43.4,24.08-88.81,42.46-137.97,48.31-34.5,4.11-69.15,7.23-100.55-14.19-4.59-3.13-10.38-9.08-14.37,0-3.19,7.27,.69,12.35,7.7,15.14,7.75,3.07,15.45,6.08,22.92,10.13,19.81,10.74,36.91,25.55,55.34,38.33,15.36,10.65,31.63,16.19,49.75,9.16,30.96-12.01,59.25-29.42,82.31-53.9,29.26-31.06,62.8-55.92,97.01-80.08,13.42-9.48,13.82-8.99,16.84,7.3,.68,3.65,1.85,8.29,5.27,7.68,3.57-.63,9.73-4.37,8.73-7.75-3.9-13.13-3.24-27.37-9.14-39.87-.83-1.75-2.74-3.67-4.47-4.11-14.55-3.73-29.18-7.14-44.07-10.71-2.89,.16-6.73-1.18-8.06,3.54-1.28,4.56,.79,7.39,4.54,9.55,7.6,4.36,16.32,2.59,24.35,5.27,8.65,2.9,11.03,5.82,3.27,12.58ZM199.45,244.66c-9.82,3.72-19.31,2.5-29.04-2.2-14.44-6.96-25.54-18.51-38.81-28.02,56.43,1.75,108.75-13.72,160.02-35.2-26.67,28.31-56.25,51.82-92.17,65.42Z"/>
</svg>