<?xml version="1.0" encoding="UTF-8"?>
<svg id="Vrstva_1" data-name="Vrstva 1" xmlns="http://www.w3.org/2000/svg" viewBox="0 0 500 335.39">
  <defs>
    <style>
      .cls-1 {
        fill: #020202;
      }
    </style>
  </defs>
  <path class="cls-1" d="M80.27,214.64c2.61,4.12,7.84,3.57,11.86,3.54,5.42-.04,4.51-5.17,4.94-9.15,.77-7.12,2.54-14.18,2.79-21.3,.23-6.57,3-8.32,8.7-8.59,23.95-1.16,47.76-5.24,71.84-2.61,5.14,0,10.32,.41,15.42-.06,57.99-5.39,115.97-10.91,173.96-16.4,12.12-1.15,24.02-2.39,29.34,13.43,2.38,7.07,9.08,10.55,14.48,14.91,7.01,5.66,12.02-1.34,15.13-4.96,3.17-3.68-2.82-6.03-6-7.89-10.17-5.97-15.78-14.4-15.63-27.23,.08-6.72-1.03-13.21,1.69-19.81,2.45-5.93-1.24-9.66-6.3-11.01-6.37-1.7-6.64,3.71-7.34,8.19-.42,2.66-1.17,5.31-1.19,7.97-.07,8.54-3.31,11.64-12.08,13.3-38.94,7.37-78.57,5.67-117.65,11.22-25.41,3.61-50.84,8.92-76.73,7.48-16.73-.93-33.32,1.05-49.95,1.55-19.02,.57-43.12,9.89-50.85-21.11-.1-.4-.46-.77-.75-1.08-3.58-3.78-7.14-9.41-12.83-4.54-5.54,4.74-1.54,9.61,1.58,13.96,3.27,4.56,9.36,8.29,.21,13.96-4.09,2.53-2.73,7.53,2.46,10.37,11.53,6.31,12.86,12.87,5.03,24.85-2.38,3.64-4.47,7.33-2.13,11.03Z"/>
</svg>