<?xml version="1.0" encoding="UTF-8"?>
<svg id="Vrstva_1" data-name="Vrstva 1" xmlns="http://www.w3.org/2000/svg" viewBox="0 0 500 335.39">
  <defs>
    <style>
      .cls-1 {
        fill: #020202;
      }
    </style>
  </defs>
  <path class="cls-1" d="M391.77,122.9c-1.22-23.65-6.66-34.26-28.33-39.51-11.6-2.81-23.66-2.46-34.69,1.48-11.3,4.04-21.54,11.21-32.52,16.36-10.67,5.01-21.45,9.13-33.63,9.85-21.88,1.3-41.16-4.87-59.9-16.24-11.1-6.74-23.25-13.35-36.3-13.75-31.97-.97-55.24,24.55-58.21,64.21,.2,1.49,.39,4.72,1.07,7.83,4.47,20.46,13.75,38.7,24.55,56.08,15.13,24.37,37.14,35.74,64.49,39.71,10.87,1.58,23.52-6.47,33.02,5.14,.49,.6,3.22-.01,4.33-.88,6.42-5,14.14-3.94,21.27-4.8,33.63-4.05,65.54-12.63,92.06-36.2,2.88-2.56,8-1.64,9.16-5.82,4.46-16.04,16.22-28.27,20.98-43.92,4.01-13.17,13.48-23.57,12.66-39.55Zm-228.09,12.07c.32,0,.65,0,.97-.01,0-12.91,.04-25.83-.02-38.74-.02-4.62,1.13-6.33,6.07-4.83,12.88,3.89,24.85,9.71,36.31,16.84,2.68,1.67,5.34,3.26,5.28,7.24-.3,18.43,.64,36.88-.76,55.31-.5,6.55-2.75,8.96-9.45,7.39-10.5-2.47-21.19-4.18-31.86-5.7-5.21-.74-6.68-3.46-6.59-8.45,.17-9.68,.05-19.37,.05-29.05Zm-23.8,64.39c-4.54-8.85-9.07-17.7-14.53-28.34q14.9,3.53,14.53,28.34Zm-9.45-37.01c-7.76-1.46-10.86-6.39-11.78-13.8-2.59-20.94,10.46-45.41,28.54-54.21,5.13-2.49,8.79-2.35,8.81,4.3,.1,23.15,1.6,46.38-2.03,69.99-8.17-2.23-15.76-4.82-23.54-6.29Zm50.71,72.52c-3.35-1.57-7.07-2.28-10.48-3.73-7.63-3.24-16.85-8.48-17.81-15.62-1.51-11.24-6.05-22.63-3.1-34.41,1.03-4.12,3.97-3.49,6.65-2.61,8.83,2.91,17.9,4.54,27.06,5.59,4.16,.47,4.9,3.05,4.85,6.66-.07,5.47-.02,10.94-.02,13.71-1.33,9.8-.99,16.85-.09,23.92,.71,5.61,.11,9.85-7.07,6.5Zm50.98-36.01c-1.36,5.13-1.02,10.21-1.21,15.33,.02,.97,.02,1.94,.02,2.91-.02,23.22-4.85,27.39-26.55,23.29-2.8-.53-4.47-1.67-5.2-4.52-3.79-14.81-4.57-29.73-2.21-44.91,.68-4.39,2.47-4.86,6.21-4.4,7,.86,14.08,1.07,21.13,1.48,6.73,.39,9.56,4.2,7.8,10.82Zm-4.73-18.71c-3.23,.43-4.94-.91-5.73-4.56-.82-3.76-2.08-7.31-2-11.31,.2-9.06,.17-18.12,.01-27.18-.11-6.49-1.47-14.53,2.33-18.72,3.6-3.96,10.65,1.04,16.21,1.26,9.88,.38,19.78,.49,29.65,.1,4.57-.18,5.77,1.12,5.77,5.86,0,17.86-4.19,35.17-6.05,52.78-.8,7.53-8.63,.73-11.25,3.27-10.59,.73-19.64-2.72-28.95-1.49Zm47.22,25.33c-1.18,9.14-4.79,18.01-2.66,27.59,.81,3.66-1.77,5.1-4.92,5.41-3.06,.3-6.15,.41-9.17,.91q-19.34,3.22-19.46-20.08c.33-4.97,.99-13.63,1.44-22.3,.29-5.71,2.97-8.03,8.35-7.45,4.89,.52,9.8,1.05,14.71,1.11,13.81,.17,13.63,.05,11.73,14.82Zm1.93-34.67c1.17-11.33,2.46-23.19,3.59-35.06,1.3-13.61,6.48-23.38,20.51-26.76,6.16-1.48,11.76-5.58,17.54-8.65,5.58-2.96,7.45-1.07,6.17,4.99-3.93,18.6-7.92,37.18-11.91,55.77-.61,2.83-1.39,5.63-1.92,8.47-1.38,7.38-5.05,11.37-12.77,10.7-3.31-.29-6.73,.47-10.06,1.04-9.83,1.69-11.12,.58-11.16-10.5Zm45.03,21.51c-1.99,9.09-3.89,18.19-6.01,27.25-1,4.26-3.17,7.57-7.6,8.87-4.15,1.21-8.15,3.02-12.32,4.15-13.27,3.6-12.23,3.53-12.15-10.03,.05-7.91-.31-15.95-.1-23.93,.15-5.88,2.16-9.27,8.95-9.28,7.94,0,15.87-1.78,23.81-2.76,5.85-.72,5.86-.7,5.43,5.74Zm7.71,23.67c-4.72,1.63-4.82-1.32-4.05-4.43,2.16-8.71,4.91-17.26,6.85-26.02,.83-3.73,3.24-4.44,5.81-5.16,4.75-1.32,9.58-2.3,14.98-3.56,1.13,16.75-9.69,34.35-23.59,39.16Zm25.36-55.96c-1.52,4.61-3.25,7.96-8.17,9.19-9.2,2.31-18.29,5.08-28.77,8.04,5.5-26.73,10.63-51.5,15.66-76.3,1.18-5.84,4.55-8.92,10.04-9.57,7.78-.92,16-1.31,22.22,3.92,2.97,2.5,.99,8.78,.23,13-3.13,17.37-5.68,34.88-11.22,51.71Zm9.53-2.28c3.75-19.31,7.35-37.85,11.29-58.16,12.18,18.64,7.45,41.29-11.29,58.16Z"/>
</svg>