<?xml version="1.0" encoding="UTF-8"?>
<svg id="Vrstva_1" data-name="Vrstva 1" xmlns="http://www.w3.org/2000/svg" viewBox="0 0 500 335.39">
  <defs>
    <style>
      .cls-1 {
        fill: #020202;
      }
    </style>
  </defs>
  <path class="cls-1" d="M390.1,67.29c-3.75-2.22-9.21-4.26-12,.76-3.04,5.45,2.81,6.65,5.97,8.42,7.98,4.48,10.43,11.88,10.66,20.77-2.26-8.16-8.24-13.02-14.02-17.98-4.66-3.99-10.1-5.65-16.13-5.37-3.21,.15-5.92,.98-5.98,4.93-.06,3.64,2.39,4.46,5.36,4.43,3.46-.03,6.94,.45,9.83,2.46,1.75,1.22,5.03,2.26,3.78,5.35-1.66,4.09-1.25,11.2-6.15,11.29-4.69,.08-6.54,2.82-9.77,4.51-5.7,2.98-9.54,8.1-15.2,11.23-18.78,10.39-39.52,14.5-59.14,22.11-12.15,4.72-25.17,5.29-37.74,8.02-3.63,.79-5.16,.88-11.52,1.76-2.22,.31-5.52,.48-6.35,.61-5.69,.95-9.29,1.15-14.6,1.13-12.71-.04-25.43-.18-38.13-.72-6.97-.3-14.12-3.97-20.43-3.69-13.09,.59-23.94-5.13-35.37-9.36-3.62-1.34-9.68-2.69-9.41-7.45,.29-5.19,6.36-4.28,10.21-5.44,1.69-.51,4.05-.69,3.55-3.41-.44-2.38-1.16-5.03-4.16-5.24-2.36-.17-4.59,.36-6.84,1.44-12.38,5.94-19.66,15.98-22.22,30.17-4.3-6.4-4.43-6.71-5.13-12.19-.69-5.45,8.35-17.13,13.19-16.9,1.82,.09,4.8,2.7,4.87-.91,.06-2.94-2.01-6.1-3.64-8.83-1.37-2.31-3.69-1.85-5.52-.35-6.63,5.46-13.02,11.08-15.99,19.87-3.84,11.37-1.25,18.44,9.38,23.94,1.01,.52,1.81,.59,1.74,1.96-.18,3.81,.77,5.94,5.05,4.26,3.36-1.32,6.74-2.07,4.81-7.29-1.22-3.31,.57-6.24,1.96-9.34,4.52,2.18,6.43,6.36,8.92,10.22,5.39,8.37,8.98,19.02,17.21,24.15,9.96,6.21,18.92,13.91,28.99,19.77,7.04,4.09,8.23,9.34,6.25,17.14-4.19,16.42-5.05,33.25-.52,49.67,7.2,26.08,24.87,41.53,49.85,45.08,22.7,3.23,42.97-2.68,57.35-24.73,13.12-20.13,18.64-42.22,20.3-65.68,.57-8.08,2.52-12.24,10.17-14.75,14.65-4.81,28.27-12.96,38.23-24.86,16.8-20.08,30.77-42.32,36.34-69.25,.69-3.35,2.32-7.94,6.94-9.65,1.2,4.92,2.85,9.31,.28,14.37-.9,1.77-1.59,6.26,2.1,6.7,3.11,.38,9.6-.25,9.07-1.99-2.28-7.53,4.61-10.09,6.09-15.34,3.1-10.98-3.1-30.22-12.49-35.79Zm-235.5,96.81c-.72,6.32-2.37,7.88-9.55,7.83-6.59-.04-14.45-8.31-13.96-14.93,.28-3.73,1.6-6.42,6.07-4.86,3.23,1.13,6.54,2.66,9.85,2.73,6.24,.15,8.31,2.98,7.59,9.22Zm188.78-36.48c3.16,0,3.2,6.17,4.95,9.84-1.01,4.97-5.66,6.79-9.02,7.07-4.79,.41-5.82-5.43-5.83-8.96-.01-6.03,6-7.96,9.9-7.96Zm-23.85,10.16c3.45-.14,4.66,1.31,4.57,4.84-.21,8.39-6.95,16.47-14.12,15.82-6.4-.58-4.05-6.38-4.68-9.99,.03-5.58,6.76-10.36,14.23-10.67Zm-41.59,12.73c3.33-.44,6.66-1.57,9.78-2.92,6.67-2.9,9.41-1.13,7.9,5.69-.32,13.82-2.35,16.7-12.55,19.09-5.1,1.2-8.12-.51-8.73-6.15-.32-2.97-.67-5.93-.99-8.9-.39-3.68,.3-6.24,4.59-6.81Zm-37.58,14.99c.24-9.01,5.65-12.66,18.17-12.2,6.65,.24,5.29,5.56,5.21,9.62-.22,10.17-4.25,13.42-16.12,13.36-7.19-.03-7.48-5.23-7.25-10.78Zm-35.99-6.37c5.64,1.32,11.37,.82,17.12-.07,2.99-.46,7.88-2.83,8.77,1.68,.87,4.41,.71,10.56-4.43,12.97-6.44,3.03-13.45,4.48-20.62,3.72-7.3-.78-6.84-6.91-7.55-13.66-.98-4.61,1.46-5.87,6.71-4.65Zm-33.57-.61c3.51,.88,7.23,.79,10.82,1.35,2.62,.41,7.05-1.84,6.42,4.05-.44,4.06,.67,9.25-5.93,9.34-2.81,.04-5.61,1.03-8.42,1.58-10.32,2.01-10.78,1.62-10.89-10.15-1.29-6.57,2.06-7.67,8.01-6.17Zm88.1,130.83c-12.87,13.06-30.08,14.97-47.33,9.44-31.88-10.21-42.45-42.73-38.5-73.16,.21-1.63,.37-3.29,.77-4.87,4.64-18.58,.18-16.26,20.99-16.4,7.52-.91,16.22,2.47,25.19,2.1,3.49-.14,4.62,1.52,4.05,5.07-2.7,16.75-5.1,33.55-8.15,50.23-.55,3.02-.42,5.41,.81,7.75,.89,1.7,2.7,1.53,4.08,.31,1.98-1.76,4.67-2,5.17-6.19,1.38-11.7,1.23-23.54,3.74-35.17,1.36-6.29,4.44-11.71,5.99-17.81,.9-3.57,4.26-4.68,6.94-4.05,12.22,2.87,24.5-.14,36.74,.92,4.54,.39,5.97,2.14,5.92,6.48-.37,28.38-6.47,55.14-26.39,75.35Zm73.54-111.7c-16.04,13.86-34.8,20.95-55.81,21.11-11.53,.09-23.26,2.07-34.54,.45-17.05-2.44-34.23,.97-51.13-2.68-3.9-.84-7.7-1.11-10.3-4.96-1.52-2.25-4.5-2.81-6.48-1.68-6.05,3.45-9.57-.68-14.13-4.14,13.52-3.96,26.21-6.29,39.68-1.63,9.77,3.38,19.71-.39,29.39-2.89,2.35-.61,4.1-.61,6.85,.81,9.59,4.95,19.38,1.8,28.65-2.28,1.68-.74,2.85-2.28,4.82-1.08,8.2,4.98,16.37,1.23,24.55-.1,1.6-.26,3.55-.68,3.78-2.45,1.06-7.93,6.83-7.52,12.39-8.97,7.13-1.85,14.98-3.7,18.09-12.47,.63-1.78,1.8-2.2,3.73-1.92,9.3,1.37,16.17-4.57,25.3-9.34-8.25,12.6-14.49,25.28-24.84,34.22Z"/>
</svg>