<?xml version="1.0" encoding="UTF-8"?>
<svg id="Vrstva_1" data-name="Vrstva 1" xmlns="http://www.w3.org/2000/svg" viewBox="0 0 500 335.39">
  <defs>
    <style>
      .cls-1 {
        fill: #020202;
      }
    </style>
  </defs>
  <path class="cls-1" d="M389.99,94.14c-6.68,5-14.2,8.09-21.51,11.37-19.92,8.96-38.96,21.56-62.14,18.94-1.9-.22-3.5,.28-4.82,1.81-2.61,3.03-6.1,3.24-9.74,3.77-16.82,2.44-33.65,4.25-50.66,4.32-32.35,.14-64.13-2.95-94.43-16.08-13.62-5.91-27.31-11.61-39.57-20.36-2.95-2.11-5.85-1.55-8.18,.74-2.52,2.48-1.93,5.69-.57,8.68,16.91,37.26,35.48,73.49,64.31,102.43,20.69,20.77,45.7,32.29,74.43,33.92,22.12,.66,43.23-4.19,63.09-14.31,11.45-5.83,24.4-10.32,33.42-19.08,17.15-16.68,30.24-37.32,42.33-58.44,8.72-15.23,14.19-32.25,23.75-46.98,2.33-3.59,4.67-7.48,1.75-10.98-3.22-3.85-8.49-1.95-11.44,.26Zm-93.23,43.63c6.94-1.72,5.52,4.49,5.53,8.53,.04,10.96-2.77,13.73-12.13,13.97-9.02,.23-6.82-6.46-7.58-14.18-2.37-11.18,8.47-6.9,14.18-8.32Zm-34.88,4.59c5.14-1.54,10.15-1.78,10.24,7.3,.11,10.53-4.54,15.66-15.21,16.13-4.83,.21-8.05-1.09-8.4-6.94-.87-14.43,.07-15.8,13.37-16.49Zm-34.71,.05c10.87,.01,11.92,1.16,11.86,12.99-.05,8.98-3.73,13.51-11.1,13.64-7.71,.14-11.4-5.52-11.37-17.45q.02-9.19,10.61-9.18Zm-49.08,4.07c-2.53,6.94-4.43,14.13-6.61,21.22-.63,2.04-.92,4.73-3.33,5-2.7,.3-4.26-2.34-5.18-4.41-2.11-4.76-4.29-9.65-5.29-14.74-1.43-7.22-1.83-14.65-2.73-22.55,6.07,1.74,11.4,3.7,16.88,4.74,6.36,1.2,8.73,3.94,6.25,10.75Zm1.65,63.93c46.47-22.28,92.15-20.47,139.5-2.35-37.64,29.84-98.27,40.26-139.5,2.35Zm160.75-48.26c-.66-11.41-1.44-21.96-1.81-32.53-.13-3.81,3.66-3.57,5.94-4.47,3-1.17,6.21-1.73,11.42-3.1-6,14.02-1.46,29.98-15.55,40.1Z"/>
</svg>