<?xml version="1.0" encoding="UTF-8"?>
<svg id="Vrstva_1" data-name="Vrstva 1" xmlns="http://www.w3.org/2000/svg" viewBox="0 0 500 335.39">
  <defs>
    <style>
      .cls-1 {
        fill: #020202;
      }
    </style>
  </defs>
  <path class="cls-1" d="M358.97,193.66c5.3,1.24,9.82-1.63,10.48-8.28,.87-8.75,2.98-17.7,2.11-26.22-1.4-13.71-3.1-27.89-13.28-38.24-2.85-2.89-6.25-4.72-10.19-1.31-2.76,2.38-4.31,5.95-1.75,8.36,10.37,9.77,.85,14.57-4.99,19.27-16.85,13.56-36.82,17.99-57.09,21.16-38.28,6-76.46,2.64-114.52,.62-21.92-1.16-44.14-4.27-62.73-18.38-4.67-3.55-9.33-2.13-11.69,2.78-2.68,5.56,2.16,7.93,6.06,9.31,10.41,3.69,14.69,9.85,9.14,21.36-1.54,3.2-1.98,6.95-3.85,13.9-3.27,7.56-3.76,19.33-6.34,30.65-2.71,11.92-2.48,23.75-1.96,35.78,.96,22.14,21.59,39.08,34.78,42.79,18.58,5.23,39.05-4.85,51.35-22.27,17.3-24.5,28.03-52.07,37.16-80.4,6.69-20.76,8.9-23.59,28.74-24.43,35.58-1.51,70.45-5.54,101.44-27.37,4.94-3.48,7.11-.39,7.91,4.19,1.53,8.79,.3,17.42-1.93,26.13-.85,3.33-5.9,8.95,1.15,10.6Zm-182.4,85.71c-8.46,12.36-20.49,19.88-34.7,17.28-15.79-2.88-26.05-14.27-29.71-30.74-4.79-21.58-.54-42.89,5.01-64,.31-1.17,.6-2.34,.95-3.5,8.65-28.4,3.7-27.05,36.79-21.27,5.76,1.01,6.36,3.59,4.9,9-4.3,15.93-12.51,30.5-15.62,46.79-.77,4.04-4.57,9.06,.13,11.97,2.88,1.78,7.36,.75,11.04-.95,4.91-2.28,3.02-6.26,3.27-10.17,1.16-18.29,9.45-34.51,15.6-51.33,1.09-2.97,3.55-3.72,6.61-3.52,9.9,.65,19.81,1.36,29.74,1.35,6.02,0,6.2,3.06,4.87,7.62-9.36,32.09-19.88,63.71-38.88,91.47Z"/>
  <path class="cls-1" d="M377.96,189.88c4.6,3.44,7.94-2.95,11.58-5.36,2.7-1.8,3.58-5.17,4.05-8.45,2.46-17.12,2.09-34.24,1.22-51.35-.24-4.65-2.44-8.38-6.34-10.7-3.61-2.15-7.04-2.57-10.27,1.38-2.94,3.6-1.7,6.71,.21,9.83,10.55,17.21,4.79,35.61,1.81,53.61-.61,3.67-7.07,7.44-2.26,11.04Z"/>
</svg>