<?xml version="1.0" encoding="UTF-8"?>
<svg id="Vrstva_1" data-name="Vrstva 1" xmlns="http://www.w3.org/2000/svg" viewBox="0 0 500 335.39">
  <defs>
    <style>
      .cls-1 {
        fill: #020202;
      }
    </style>
  </defs>
  <path class="cls-1" d="M92.79,164.97c3.05,.34,4.81-2.42,5.47-5.43,1.04-4.77,2.15-9.43,6.3-13.38,5.97,8.03,12.71,13.95,20.06,19.22,17.31,12.41,35.07,23.61,56.46,26.5,4.06,.55,7.43,2.29,5.65,7.78-4.93,15.17-4.5,31.11-5.08,46.7-.64,17.34,3.3,33.51,15.52,47.26,22.48,25.29,65.74,27.02,92.33,12.36,11.91-6.57,19.93-16.82,25.51-29.7,10.35-23.89,13.65-49.36,14.88-74.99,.51-10.63,2.67-15.75,12.97-18.52,16.95-4.56,32.68-12.12,45.74-25.27,4.11-4.13,6.01-14.46,13.37-11.13,5.39,2.44,6.88,11.08,9.36,17.36,.52,1.32,.77,2.75,1.26,4.09,1.01,2.76-.79,8.82,5.1,6.24,3.99-1.74,9.45-3.97,5.66-10.99-3.03-5.6-5.83-11.36-8.33-17.23-6.82-16.04-20.93-20.55-35.24-24.72-3.58-1.04-7.05-.54-7.84,4.28-.7,4.27,2.03,5.77,5.41,6.14,4.58,.49,8.42,2.67,12.55,5.33-6.82,12.02-15.51,21.23-27.75,27.49-18.59,9.51-38.71,13.31-58.37,18.7-25.35,6.95-51.39,7.21-77.37,5.48-34.09-2.27-67.22-8.27-95.4-30.82-6.12-4.9-12.88-9.08-16.95-16.55,1.1-.46,1.75-1.01,2.31-.91,4.28,.73,9.76,2.89,10.32-4.1,.49-6.11-4.64-6.14-9.32-7.02-12.98-2.46-26.41,13.96-27.45,28.96-.18,2.64-1.01,6.49,2.85,6.92Zm99.19,65.96c.33-8.49,1.8-16.95,3.04-25.38,.99-6.71,3.29-10.81,11.52-8.98,8.25,1.84,16.97,1.99,25.46,1.85,9.48-.15,13,4.77,12.51,13.76-.89,16.32,2.06,32.79-2.36,49.01-1.18,4.32-.29,10.27,5.92,9.94,4.94-.26,8.6-3.04,7.94-9.88-.73-7.43-.16-14.99-.16-22.49-.75-10.7-1.94-21.36-.7-32.11,.55-4.79,2.18-7.07,6.74-7.54,17.65-1.79,35.33-3.55,52.54-8.28,4.5-1.24,4.42,1.48,4.45,4.49,.28,27.75-2.78,54.98-14.21,80.33-9.86,21.87-29.06,28.65-50.03,29.07-20.51,.4-40.42-3.56-53.28-23.31-9.99-15.34-10.07-32.96-9.39-50.49Z"/>
</svg>