<?xml version="1.0" encoding="UTF-8"?>
<svg id="Vrstva_1" data-name="Vrstva 1" xmlns="http://www.w3.org/2000/svg" viewBox="0 0 500 335.39">
  <defs>
    <style>
      .cls-1 {
        fill: #020202;
      }
    </style>
  </defs>
  <path class="cls-1" d="M407.27,124.88c-12.84-8.34-26.08-16.68-41.94-12.58-11.51,2.98-22.22,5.62-32.25-3.68-1.55-1.44-4.29-1.46-6.46-2.19-11.14-3.72-21.63,.39-31.01,5.12-15.82,7.99-29.27,5.45-42.83-4.9-16.78-12.81-34.78-13.32-53.17-3.86-5.18,2.67-10.36,5.52-15.05,9.01-18.43,13.69-39.14,10-58.44,5.87-16.92-3.62-34.2,1.4-41.37,18.11-5.17,12.06-8.36,24.5-7.18,38.09-.68,8.34,.43,16.69,2.64,24.92,5.32,19.86,20.8,28.55,39.57,22.21,4.11-1.39,8.39-2.34,12.31-4.16,6.79-3.15,10.11-.44,12.36,6.31,3.79,11.37,11.63,18.8,22.68,21.68,21.81,5.69,41.75,.37,59.66-13.21,12.77-9.68,21.3-10.6,33.42-.01,11.54,10.08,23.48,10,36.44,4.79,7.55-3.03,15.34-6.03,21.45-11.49,10.58-9.45,20.15-7.61,30.25,.44,13.5,10.76,43.84,6.53,54.77-6.11,23.01-26.6,25.98-59.97,7.45-90.19-.93-1.52-1.9-3.28-3.3-4.19Zm-36.26,97.85c-7.42,.9-14.49-2.49-21.1-7.04-13.8-9.52-21.83-9.43-35.39,.88-6.33,4.81-12.89,9.1-20.22,12.2-10.72,4.53-19.96,3.28-28.68-5.13-12.18-11.75-28.58-12.29-41.44-1.29-15,12.82-31.8,18.13-50.87,14.87-10.2-1.74-18.46-7.9-20.88-18.15-3.47-14.69-11.18-13.2-21.81-11.2-3.65,.69-7.22,2.2-10.63,3.8-15.62,7.37-25.13-.08-30.46-13.99-8.3-21.65-5.3-43.3,6.87-63.18,5.85-9.56,15.11-6.63,23.26-6.38,17.26,.52,34.46,2,51.74-.69,11.25-1.75,18.87-10.19,28.2-15.33,17.8-9.81,33.87-7.27,49.48,4.17,14.45,10.6,29.5,13,45.59,4.75,6.8-3.48,13.73-6.07,21.41-6.28,5.41-.14,10.18,1.22,14.61,4.59,7.69,5.87,15.36,9.32,25.51,4.77,14.91-6.68,28.84-1.46,41.9,6.98,2.56,1.66,4.58,3.82,5.41,6.85,3.17,11.54,7.28,22.93,9.09,34.71,3.47,22.67-19.3,49.94-41.59,50.09Z"/>
  <path class="cls-1" d="M376.23,138.12c-9.23-.38-18.67,.33-27.3-3.99-14.06-7.03-27.82-6.84-41.58,.8-12.29,6.82-24.7,5.45-36.06-1.65-6.71-4.2-13.72-7.56-20.61-11.25-22.02-11.79-37.77-10.93-54.95,7.75-11.56,12.57-25.06,8.94-37.81,10.55-10.82,1.37-21.24-4.97-31.99-7.26-12.15-2.59-20.61,3.06-27.47,12.57-7.67,10.65-10.36,22.33-4.79,34.88,3.29,7.43,13.06,9.56,19.8,4.93,10.23-7.02,17.96-7.64,23.91-.26,5.56,6.9,12.19,12.17,18.7,17.86,11.92,10.42,22.24,11.62,34.5,2.38,11.71-8.83,32.62-14.05,45.7-1.19,13.08,12.86,29.56,9.8,45.2,10.5,2.52,.11,4.99-.66,7.16-2.64,15.7-14.38,33.37-15.39,52-7.67,6.25,2.59,12.5,4.62,20.19,4.81,4.39,.73,9.21-2.12,14.45-2.41,11.68-.65,19.4-6.71,22.21-19.01,1.06-4.65,2.58-9.19,3.79-13.81,4.29-16.27-8.98-35.24-25.04-35.89Zm-242.6,13.32c-.45,4.25-8.07,3.67-12.46,4.22-3.39,.42-5.7-2.99-4.46-6.91,.78-2.46-.63-7.75,5.18-5.75,5.29,.78,12.51,1.34,11.75,8.44Zm14.53,4.16c-1.64-.27-2.81-2.35-2.31-4.33,.77-2.99,2.77-.79,4.2-.75,5.29,.17,10.57,.47,17.39,.8-6.54,7.02-13.06,5.3-19.28,4.28Zm47.28-1.26c-.87,5.38-5.85,2.54-7.76,4.55-4.7-.13-8.8-1.3-9.95-5.39-1.44-5.17,3.88-3.86,6.26-5.36,.72-.46,1.62-.64,2.45-.89,3.13-.93,6.16-5.11,9.27-2.38,2.63,2.31,.25,6.28-.27,9.47Zm24.67-7.89c-3.82,2.35-9.18,5.94-12.16,.8-2.76-4.75-4.53-11.67,2.2-16.05,1.96-1.27,4.12-2.19,6.14-3.36,6.32-3.67,9.92-3.02,8.34,5.61,.52,5.22,.04,10.18-4.52,12.99Zm34.37-.24c-2.25,4.11-5.18,1.97-8.24,1.03-6.54-2.02-11.78-4.88-10.84-13.07-.77-6.08,1.46-7.59,6.24-4.82,3.76,2.18,7.74,4.19,10.94,7.09,2.58,2.34,3.95,6.02,1.9,9.76Zm33.06,7.84c-.48,3.39-3.49,4.65-6.42,4.86-8.09,.58-12.48-3.89-14.3-15.02,5.87,2.35,10.9,4.39,15.95,6.38,1.99,.78,5.26,.38,4.77,3.78Zm33.88-1.31c-1.35,4.12-4.54,5.07-8.2,5.17-.86,.02-1.73,0-3.27,0-1.92,.11-4.42-.12-6.93-1.1-1.94-.76-3.92-1.05-4.09-3.79-.16-2.63,1.44-3.57,3.43-4.47,2.9-1.31,5.6-3.1,8.53-4.35,2.79-1.19,6.13-4.29,8.64-1.58,2.16,2.33,3.13,6.36,1.9,10.11Zm21.71,7.13c-5.97-.56-11.36-2.97-10.62-11.55,.87-2.11-1.85-7.98,3.56-6.37,4.99,1.49,13.11-.27,13.7,8.55,.29,4.3-.62,9.94-6.64,9.37Zm28.16,4.99c-6.76-.85-11.4-2.87-11-11.52,.3-6.42,4.22-5.11,8.4-5.39,2.46,3.71,11.31-3.37,10.8,6.43-.26,4.98,.09,11.53-8.2,10.48Z"/>
</svg>