<?xml version="1.0" encoding="UTF-8"?>
<svg id="Vrstva_1" data-name="Vrstva 1" xmlns="http://www.w3.org/2000/svg" viewBox="0 0 500 335.39">
  <defs>
    <style>
      .cls-1 {
        fill: #020202;
      }
    </style>
  </defs>
  <path class="cls-1" d="M60.61,147.83c5.59,3.67,6.98-2.24,8.34-5.54,3.62-8.79,7.55-8.02,12.54-1.43,1.73,2.29,3.87,4.23,5.78,6.38,26.08,29.34,54.43,53.96,92.79,65.51,41.43,12.47,82.14,12.34,122.49-.41,44.21-13.98,84.35-36.86,118.68-69.9,3.04-2.93,5.74-8.03,10.07-1.11,2.8,4.47,5.41,2.74,8.52-.59,3.13-3.35,3.97-6,.93-9.57-8.85-10.37-17.27-21.73-33.17-16.39-4.14,1.39-10.54-1.02-11.27,6.44-.6,6.15,4.19,7.59,9.16,8.48-20.92,22.41-42.8,41.7-69.94,53.13-42.84,18.04-85.51,32.23-133.56,21.9-47.54-10.22-81.02-39.73-113.54-76.03,4.55,.28,7.27,.76,9.93,.54,5.03-.41,5.2-4.42,4.87-8.34-.31-3.71-1.94-6.26-6.05-6.17-16.01,.35-29.82,4.75-37.82,21.08-2.29,4.67-3.45,8.96,1.25,12.06Z"/>
</svg>