<?xml version="1.0" encoding="UTF-8"?>
<svg id="Vrstva_1" data-name="Vrstva 1" xmlns="http://www.w3.org/2000/svg" viewBox="0 0 500 335.39">
  <defs>
    <style>
      .cls-1 {
        fill: #020202;
      }
    </style>
  </defs>
  <path class="cls-1" d="M405.24,111.5c-11.01-2.42-22-.51-33.01-.59-70.2-.5-135.78,18.75-198.72,49.66-30.91,15.18-60.7,32.48-88.77,55.45-.95-6.06-.74-10.61-2.45-14.16-2.15-4.48-5.98-7.74-11.2-3.41-2.42,2.01-3.09,45.61-.37,46.75,3.65,1.53,4.97,3.84,5.14,7.59,.29,6.5,3.18,8.17,9.21,6.27,5.92-1.86,9.95-5.18,6.5-11.28-8-14.16,1.31-22.48,9.66-29.08,40.17-31.75,85.35-53.55,132.85-70.25,33.36-11.72,68-18.03,102.8-21.85,21.29-2.34,43.22-4.57,64.57,2.05,10.24,3.17,17.82,7.36,13.58,21.26-2.64,8.66-2.97,18.06-4.75,27.04-.83,4.22-3.56,8.82,.79,11.91,3.02,2.15,7.2,1.5,10.73-.18,4.43-2.1,5.6-5.32,4.43-10.56-1.38-6.14,.25-12.32,1.41-18.57,2.56-13.74,4.07-27.69,3.12-41.8-.94-13.97-5.36-26.53-13.75-37.37-4.02-5.19-10.29-6.39-14.81-2.34-4.82,4.32-1.89,9.25,2.41,13.41,2.97,2.86,5.12,6.75,7.29,10.4,5.18,8.68,2.16,11.61-6.66,9.67Z"/>
  <path class="cls-1" d="M235.62,194.14c-14.39,6.31-29.83,9.99-43.05,19.3-4.88,3.43-8.4,7.8-5.16,13,4.16,6.68,9.07,1.93,12.44-1.94,8.92-10.24,20.94-10.97,32.63-12.72,4.33,2.42,8.24,.67,12.14-.86,3.84-1.5,9.03-2.52,8.98-7.59-.04-4.7-4.95-6.81-8.67-8.38-2.81-1.19-6.73-1.95-9.32-.81Z"/>
</svg>