<?xml version="1.0" encoding="UTF-8"?>
<svg id="Vrstva_1" data-name="Vrstva 1" xmlns="http://www.w3.org/2000/svg" viewBox="0 0 500 335.39">
  <defs>
    <style>
      .cls-1 {
        fill: #020202;
      }
    </style>
  </defs>
  <path class="cls-1" d="M348.93,165.34c-4.11,5.51-7.88,6.22-13.75,1.3-7.1-5.95-15.25-6.83-23.77-.83-4.95,3.48-10.38,6.2-14.22,11.11-2.64,3.37-4.37,3.41-8.17,.93-17.51-11.41-21.68-11.18-37.66,2.79-6.76,5.91-12.53,6.74-19.92,1.64-12.2-8.41-24.62-11.14-37.46-.5-5.5,4.56-12.2,7.49-18.06,11.64-8.52,6.04-15.58,7.12-22.76-2.81-7.11-9.84-16.42-17.09-30-17.26-8.88,.7-16.95,5.14-23.37,12.76-2.07,2.45-6.04,5.11-3.03,8.84,3.49,4.31,6.56,.26,9.48-1.9,14.53-10.77,26.3-9.2,37.73,5.08,1.19,1.49,2.3,3.07,3.26,4.73,4.97,8.56,11.83,10.22,19.99,5.6,8.51-4.82,16.77-10.12,25.18-15.13,11.26-6.71,22.44-8.19,33.24,1.05,7.85,6.72,14.56,6.05,22.83-.7,18.1-14.75,18.58-14.39,36.9-1.72,5.46,3.78,9.14,3.47,13.32-1.92,3.25-4.19,7.3-7.85,11.46-11.07,7.01-5.42,14.74-6.64,21.23,.43,7.21,7.85,12.44,6.83,19.11-1.02,5.35-6.29,13.32-9.16,19.36-1.03,6.26,8.44,9.6,5.92,13.42-1.62,2.55-5.04,4.91-9.5,11.42-3.46,5.01,4.65,8.35,.49,9.1-4.99,.97-7.08-4.73-10.4-9.01-13.67-4.44-3.39-7.65,.58-9.79,4.45-3.33,6.01-6.33,7.73-13.14,3.56-7.56-4.63-16.37-5.02-22.9,3.74Z"/>
  <path class="cls-1" d="M48.69,202.81c1.76,.49,4.94-2.99,5.15,1.12,.3,5.75,3.18,4.63,6.76,4.25,5.02-.52,5.64-3.84,6.17-8.05,1.36-10.71,6.93-19.01,13.71-26.72,4.57,2.93,.38,9.61,6.56,11.22,4.38-5.29,2.78-11.41,1.41-17.3-1.03-4.42-1.42-10.09-6.98-10.79-4.79-.61-6.88,4.11-9.05,7.63-6.18,10.05-12.65,19.94-17.29,31.51-5.66-9.65-1.03-24.86,9.12-30.93,2.57-1.53,5.74-1.5,5.45-5.87-.24-3.63-2.3-5.7-5.01-7.17-3.8-2.06-6.39,.46-8.69,3.15-7.8,9.14-13.87,19.42-16.95,31.29-2.25,8.67,1.3,14.31,9.63,16.64Z"/>
  <path class="cls-1" d="M411.29,150.45c10.08,4,12.48,12.65,11.2,22.44-.7,5.34-1.33,10.19,4.78,10.41,5.29,.19,9.06-3.43,8.24-9.47,.26-16.03-8.71-34.24-18.98-37.49-4.32-1.37-10.52-5.88-13.18,2.33-2.23,6.88,2.72,9.72,7.93,11.79Z"/>
  <path class="cls-1" d="M447.68,133.07c-2.76-3.73-6.05-6.85-10.2-8.62-2.7-.13-4.52,1.42-5.63,3.41-1.97,3.54-.82,6.65,1.87,9.4,8.53,8.73,14.02,19.03,14.26,31.8,.12,6.7,4,4.65,7.7,4.23,4.48-.51,6.86-1.74,5.58-7.28-2.74-11.83-6.37-23.19-13.58-32.94Z"/>
</svg>