<?xml version="1.0" encoding="UTF-8"?>
<svg id="Vrstva_1" data-name="Vrstva 1" xmlns="http://www.w3.org/2000/svg" viewBox="0 0 500 335.39">
  <defs>
    <style>
      .cls-1 {
        fill: #020202;
      }
    </style>
  </defs>
  <path class="cls-1" d="M66.59,168.5c7.3,2.72,11.41-1.69,11.81-9.98,.24-4.97,1.95-10.13,8.05-6.65,21.87,12.48,46.44,10.97,69.88,15.57,35.99,7.08,71.81,10.22,108.06,3.19,8.12-1.58,9.37,1.66,9.4,9.41,.07,17.33-.17,34.82,4.99,51.63,3.7,12.04,10.51,20.91,22.56,24.59,33.97,10.38,64.86-8.69,73.18-44.56,3.87-16.7,4.17-33.33,3.23-50.28-.45-8.02-.71-18.3,7.41-21.76,9.36-4,17.96-9.44,27.26-13.47,8.1-3.51,11.53-1.86,11.41,7.48-.06,4.62,.06,10.06,6.97,8.01,4.63-1.37,9.32-3,8.83-9.91-1.16-16.45-32.31-44.56-47.63-42.57-4.09,.53-7.49,2.59-8.3,7.48-.96,5.78,3.27,6.73,6.93,8.13,1.22,.46,2.56,.57,3.85,.83,4.68,.93,11.01,1.04,11.91,6.52,1.18,7.24-6.41,7.56-10.7,9.93-20.72,11.44-43.29,17.65-65.71,23.6-40.71,10.81-82.18,16.65-124.14,17.56-14.22,.63-27.78-3.84-41.68-5.32-19.93-2.12-39.89-4.92-58.77-13-15.84-6.78-16.06-6.37-4.25-18.82,2.82-2.97,6.71-5.68,3.32-10.23-3.31-4.45-6.78-1.46-10.34,.69-14.45,8.74-26.18,19.59-29.1,37.98-.79,4.97-5.64,11.28,1.57,13.97Zm219.9,8.37c1.18-9.36,14.69-17.57,26.53-14.85,8.72,2,5.05,9.87,4.68,15.8-.28,4.5-1.5,9.93,2.83,12.29,2.43,1.32,6.94,.16,9.8-1.37,5.01-2.68,3.21-7.48,2.35-12.1-2.88-15.47,9.84-28.87,25.08-27.42,4.04,.39,3.66,2.68,4.17,5.21,5,25.2,4.96,49.99-6.52,73.64-5.59,11.51-19.68,17.26-37.86,16-18.06-1.25-23.73-6.08-28.62-29.06-2.63-12.33-4.04-25.25-2.42-38.13Z"/>
</svg>