<?xml version="1.0" encoding="UTF-8"?>
<svg id="Vrstva_1" data-name="Vrstva 1" xmlns="http://www.w3.org/2000/svg" viewBox="0 0 500 335.39">
  <defs>
    <style>
      .cls-1 {
        fill: #020202;
      }
    </style>
  </defs>
  <path class="cls-1" d="M74.79,148.9c4.48,1.28,6.1-2.11,6.95-6,.17-.79,.5-1.57,.54-2.36,.7-12.34,4.79-9.99,12.13-4.16,10.43,8.28,21.59,16.1,34.02,20.6,20.13,7.28,34.56,20.32,44.46,40.07,6.26,12.48,13.52,24.56,22.72,35.11,16.04,18.39,37.11,18.74,54.9,1.54,6.84-6.62,13.54-12.48,24.37-3.82,11.01,8.81,33.35,5.68,44.24-5.21,13.39-13.38,27.99-26.86,35.07-44.83,10.41-26.45,33.52-40.35,49.74-60.91,2.71-3.43,7.98-8.33,10.4,1.73,1.67,6.95,6.44,3.93,10.16,1.92,4.07-2.2,5.95-6.12,2.82-9.97-8.25-10.12-16.29-20.77-30.14-23.09-4.51-.76-9.15-1.1-10.7,4.22-1.75,6.03,2.79,7.19,7.31,8.26,3.44,.82,9.11,1.6,4.06,7.45-11.15,12.92-22.04,26.39-36.08,35.89-17.95,12.15-18.65,11.72-35.72-3.55-5.16-4.62-10.65-7.5-17.31-8.86-19.06-3.91-35.93,.49-50.71,13.64-4.35,3.87-8.31,6.56-14.37,2.55-25.4-16.81-49.6-15.17-72.03,6.31-4.66,4.46-9.15,4.79-14.72,1.63-15.61-8.87-31.44-17.34-47.18-25.98-4.54-2.49-7.76-4.36-5.59-11.76,2.35-8.02-4.32-12.38-12.1-9.1-13.23,5.58-20.02,15.95-20.47,30.46-1.16,3.98-.41,7.18,3.19,8.21Zm239.85,64.4c-11.97,12.25-29.27,11.86-41.49-1.12-7.63-8.1-11.66-7.6-17.56,2.12-6.85,11.27-18.22,19.46-30.6,19.41-12.05-.05-20.6-11.14-28.05-20.68-4.83-6.18-8.09-13.73-11.96-20.72-1.49-2.7-4.97-5.58-2.91-8.58,2.68-3.89,6.38,.02,9.48,.68,44.08,9.46,87.89,11.25,131.25-4.19,6.84-2.44,12.58-7.89,22.12-8.17-8.64,16.03-18.67,29.38-30.27,41.25Zm-75.64-45.83c2.65,4.1,4.74,3.98,7.06,1.55,6.06-6.35,14.21-9.25,20.71-15.18,16.54-15.08,46.72-11.3,59.67,6.37,3.47,4.74-1.03,5.25-3.42,6.59-13.21,7.45-27.81,9.75-42.36,11.14-34.77,3.32-69.1,1.16-102.7-11.44,17.94-22.3,46.37-21.75,61.03,.97Z"/>
</svg>