<?xml version="1.0" encoding="UTF-8"?>
<svg id="Vrstva_1" data-name="Vrstva 1" xmlns="http://www.w3.org/2000/svg" viewBox="0 0 500 335.39">
  <defs>
    <style>
      .cls-1 {
        fill: #020202;
      }
    </style>
  </defs>
  <path class="cls-1" d="M112.67,138.47c7.93,6.11,9.09,17.8,13.57,26.8,9.06,18.18,20.27,35.17,29.85,53.09,19.3,36.07,49.39,52.69,87.83,54.95,22.56-1.13,43.57-7.88,63.17-19.42,16.35-9.62,29.37-22.52,37.47-40.75,3.83-8.6,9.73-16.16,14.19-24.48,11.01-20.52,17.37-43.41,29.19-63.53,2.16-3.67,2.43-7.15-.92-9.78-3.12-2.45-7.1-2.48-9.51,.87-3.46,4.82-8.74,6.01-13.29,8.56-13.51,7.58-28.02,11.98-42.77,16.54-22.6,6.98-45.04,13.49-68.63,13.84-10.34,.15-20.76-1.44-31.05-2.89-28.18-3.97-56.52-7.63-83.17-18.72-7.47-3.11-16.05-5.56-19.88-14.77-1.67-4.01-5.56-4.35-9.14-3.46-3.66,.91-3.13,4.42-3.14,7.3-.01,6.12,.02,11.1,6.21,15.86Zm202.37,97.99c-21.57,17.32-45.49,27.39-75.67,24.74-16.65,1.27-32.37-7.61-47.44-18.15-10.27-7.18-9.83-11.57,1.32-17.69,17.74-9.75,43.85-3.86,56.43,13.04,3.24,4.36,5.33,5.86,9.82,1.15,4.91-5.15,10.87-9.26,16.61-13.48,11.79-8.68,24.43-8.04,37.11-2.65,8.5,3.61,9.06,7.24,1.84,13.04Zm18.36-83.38c2.21-9.72,12.57-8.23,19.54-11.16,5.18-2.18,2.42,3.46,3.55,4.63-.48,11.56-8.98,22.07-16.92,20.65-7.68-1.37-7.1-10.05-6.18-14.12Zm-36.01,5.74c4.05-1.04,8.09-2.18,12.16-3.14,10.81-2.55,12.16-1.42,12.23,11.38,.44,3.28,.02,7.26-5.14,9.07-6.16,2.17-12.51,3.55-18.07-.46-4.25-3.07-4.26-8.98-4.96-13.96-.3-2.16,2.11-2.46,3.78-2.89Zm-40.16,6.97c4.78-.99,9.67-1.42,14.53-2.03,4.22-.53,9.35-3.4,9.62,5.05,.2,6.49-.91,10.94-8.42,10.08-2.08-.24-4.2-.04-6.3-.04,0,.14-.01,.29-.02,.43-3.13-.27-6.28-.45-9.4-.82-5.52-.67-10.06-3.86-9.51-9.64,.55-5.79,6.19-2.34,9.51-3.03Zm19.64,22.17c9.19-1.44,18.29-1.55,27.48-.03,5.71,.95,11.78-.02,16.36-3.14,10.38-7.08,21.98-5.71,34.07-7.79-6.07,14.48-14.86,26.04-22.15,38.53-1.85,3.17-3.36,3.52-6.57,1.16-21.89-16.11-45.42-11.53-60.81,2.94-6.54,6.15-10.9,5.8-18.1,.76-21.9-15.36-44.57-15.19-66.46,.44-5.75,4.11-8.66,3.88-12.05-2.66-5.7-10.98-11.94-21.67-18.37-32.2-3.52-5.77-.7-8.59,3.73-6.49,17.64,8.39,37.23-2.01,55.15,8.01,9.55,5.34,21.63,3.69,33.47,1.41,10.78-2.08,22.81,.84,34.25-.95Zm-68.25-26.79c7.25,.95,14.66,1.51,21.64,3.58,4.93,1.46,5.92,6.72,5.2,11.84-.78,5.54-5.13,3.69-7.46,4.24-12.71,.2-21.65-5.9-22.4-14.58-.22-2.62-.99-5.6,3.01-5.08Zm-40.14-4.56c1.66-4.47,6.68-.59,10.19-.65,3.07-.06,6.16,1.07,9.23,1.75,5.48,1.23,6.34,6.06,5.58,10.27-1.27,7.12-7.52,4.73-11.57,5.49-4.24-.16-8.5,.98-11-3.19-2.5-4.18-3.93-9.65-2.44-13.67Zm-12.68,4.35c.11,2.52,.83,5.57-1.41,7.13-2.16,1.5-4.92,.26-6.93-1.04-7.88-5.07-14.56-11.2-15.47-23.93,10.23,4.46,23.09,2.04,23.81,17.84Z"/>
  <path class="cls-1" d="M372.23,97.21c.08,3.8,3,5.85,6.6,5.52,9.08-.83,12.57,4.92,14.17,12.86,.57,2.85,.74,5.81,.83,8.73,.12,3.8,1.59,5.52,5.26,4.19,2.92-1.06,7.72,.68,7.52-5.77-4.13-7.61-3.58-17.53-9.56-24.98-4.98-6.21-11.23-6.88-18.12-6.08-3.3,.39-6.78,1.42-6.69,5.53Z"/>
  <path class="cls-1" d="M414.9,109.76c-.76,4.89,2.02,6.86,6.06,6.63,4.3-.24,6.1-3.13,5.47-7-.16-8.22-3.33-14.83-6.45-21.4-1.63-3.42-3.85-6.59-8.2-3.88-3.67,2.28-4.16,5.53-2.15,9.37,2.66,5.1,6.27,9.84,5.27,16.28Z"/>
</svg>