<?xml version="1.0" encoding="UTF-8"?>
<svg id="Vrstva_1" data-name="Vrstva 1" xmlns="http://www.w3.org/2000/svg" viewBox="0 0 500 335.39">
  <defs>
    <style>
      .cls-1 {
        fill: #020202;
      }
    </style>
  </defs>
  <path class="cls-1" d="M249.1,262.87c14.03,2.06,31.19-2.19,48.48-4,24.99-2.62,48.27-11.31,69.38-25.41,11.87-7.93,23.41-17.57,29.5-30.97,5.79-12.74,6.39-26.63,.8-40.89-3.81-9.72-3.15-21.39-12.83-28.22-.7-.49-1.1-1.54-1.47-2.41-15.13-35.93-45.2-50.15-78.98-55.73-31.09-5.13-62.57-4.75-93.5,4.96-31.09,9.75-62.97,17.25-86.45,43.38-14.3,15.92-28.82,31.35-24.33,56.59,2.99,16.82,7.52,32.93,20.03,44,15.02,13.29,33.49,21.09,51.89,27.87,23.81,8.77,48.76,11.21,77.49,10.83Zm125.78-129.23c2.98,7.99,11.36,12.73,5.3,21.47-.98,1.41-2.1,3.48-4.26,2.82-1.8-.54-.97-2.71-1.55-3.91-3.1-6.34-2.88-12.58,.51-20.39Zm-24.42-30.12c7.2,7.7,15.39,13.16,14,24.47-.34,2.8-1.1,5.72-2.38,8.18-1.64,3.18-4.56,5.93-8.06,5.46-4.11-.56-6-4.66-6.17-8.49-.42-9.46-1.08-19.05,2.61-29.61Zm-37.26,3.88c.33-2.85,.76-5.69,.93-8.55q.71-12.38,12.32-7.71c14.6,5.87,14.39,5.83,12.4,20.04-1.07,7.63-2.65,14.16-11.93,13.09-9.31-1.07-14.16-7.2-13.72-16.88Zm-32.55-7.82c.29-1.86,.04-3.82,.04-5.73q0-11.99,11.74-11.39,13.02,.67,11.13,16.65c-.15,1.23-.95,2.38-1.1,3.61-.92,7.5-4.84,13.92-11.87,13.13-7.65-.86-11.29-7.62-9.94-16.27Zm-34.36-1.37c.08-1.47,.14-2.11,.14-2.74,.01-14.99,6.3-19.59,20.12-14.73,4.49,1.58,6.14,15.82,2.57,22.16-.15,.27-.35,.52-.54,.78-4.63,6.47-11.33,12.14-18.35,10.46-7.83-1.87-2.14-11.11-3.94-15.93Zm-33.93-10.16c7.27-1.98,14.49-5.1,22.3-3.67,.45,.08,.84,.88,1.13,1.42,3.49,6.52-2.69,28.58-9.05,32.39-6.29,3.76-12.91,1.17-15.16-6.08-.75-2.4-1.19-4.94-1.47-7.46-.24-2.21-.05-4.47-.05-7.28,1.43-2.6-3.07-7.86,2.3-9.32Zm-33.11,13.59c1.28-7.32,10.03-6.59,15.72-8.12,5.13-1.38,5.16,3.87,5.38,7.65,.15,2.54,.03,5.09,.03,8.87,.95,6.35,.8,13.54-6.43,18.11-5.55,3.51-10.42,2.43-12.08-4.14-1.83-7.27-3.87-15.29-2.63-22.37Zm-25.26,8.78c15.66-7.33,17-6.86,16.59,12.83-.65,4.7-.21,11.45-4.17,16.67-3.2,4.22-7.04,6.75-9.74-1.1-1.86-5.41-7.92-8.02-8.4-14.88-.43-6.06-1.3-10.24,5.72-13.52Zm-17.86,37.37c-.71,4.11-1.16,8.79-6.01,9.53-4.04,.61-8.94,2.14-11.87-2.43-2.88-4.48-1.38-9.15,.94-13.52,3.84-7.21,10.28-11.44,17.36-17.16,.92,8.99,.84,16.29-.42,23.58Zm3.83,66.87c12.09-19.07,30.1-29.52,49.8-37.39,7.4-2.96,15.01-5.47,22.67-7.6,11.75-3.26,23.23-.82,34.49,2.97,3.68,1.23,6.49,3.96,7.59,7.77,.95,3.29,1.79,6.82,5.56,6.14,3.38-.61,7.76-1.77,8.75-5.75,1.64-6.65,6.37-7.3,11.47-9.07,14.64-5.09,29.88-6.34,44.11-1.97,17.88,5.49,33.68,16.01,44.49,32.97,2.85,4.47,.16,10.75,4.93,14.85,1.15,.99-2.36,3.15-3.96,4.43-22.47,18.02-48.55,26.15-76.1,29.96-13.9,1.92-27.79,4.57-39.92,3.01-40.62,.89-77.12-7.16-111.19-26.91-7.34-4.26-6.21-7.83-2.68-13.4Z"/>
</svg>