<?xml version="1.0" encoding="UTF-8"?>
<svg id="Vrstva_1" data-name="Vrstva 1" xmlns="http://www.w3.org/2000/svg" viewBox="0 0 500 335.39">
  <defs>
    <style>
      .cls-1 {
        fill: #020202;
      }
    </style>
  </defs>
  <path class="cls-1" d="M99.05,194.64c.7,12.5,8.55,18.63,20.47,16.53,7.01-1.24,13.78-2.94,20.15-6.46,1.56-.86,2.78-2.84,6.4-.19,13.93,10.21,30.88,10.24,47.02,10.24,5.36,0,10.78-.86,16.42-.17,11.94,1.46,24.2,7.14,35.87-1.48,.76-.56,2.44,.16,3.67,.38,12.46,2.27,24.74,2.55,36.47-3.45,2.55-1.31,4.8-1.75,7.52,.02,5.88,3.83,12.71,3.2,18.73,1.59,16.47-4.41,33.6-3.87,50.02-8.18,3.63-.95,7.23-.14,10.75-.28,19.82-.83,31.11-.15,29.36-26.57-.86-12.94-7.54-25.02-5.21-38.49,.33-1.9-1.44-3.72-3.05-3.57-9.5,.85-19.22-7.86-28.75,1.81-3.54,3.59-9.83,4.18-14.83,6.21-24.39,9.9-49.63,17.7-75.61,18.7-35.37,1.36-70.86,.33-105.5-9.96-5.4-1.6-9.78-5.52-15.97-5.55-14.49-.07-27.8-5.44-39.43-14.17-7.13-5.35-11.26-1.56-11.35,4.39-.24,15.12-4.17,29.82-3.19,44.93,0,4.58-.21,9.17,.04,13.74Zm272.53-47.83c5.16-.73,12.58-2.11,14.74,5.07,2.99,9.93,4.3,20.41,6.19,30,.19,7.89-4.57,9.14-9.91,9.82-5.85,.74-9.36-2.1-9.3-8.02,.08-9.24-1.21-18.06-3.9-26.84-1.03-3.37-4.24-9.11,2.18-10.03Zm-26.77,7.64c8.4-2.6,12.06-2.96,12.66,7.16,.36,5.93,1.46,11.83,2.53,17.68,2.65,14.55,.83,16.93-14.02,16.74-5.5,.85-8.64-1.31-8.26-8.69,.27-5.2-.49-10.57-1.53-15.71-1.69-8.43-1.6-14.02,8.61-17.18Zm-25.71,8.26c3.1-.39,4.5,.29,4.83,3.3,.65,5.87,1.47,11.74,1.72,17.64,.59,14.36-8.7,21.91-21.93,18.03-8.14-2.38-4.45-9.72-5.64-13.75-.05-19.24,3.4-23,21.02-25.23Zm-49.51,8.76q18.91-1.33,17.47,17.96c-.83,11.12-4.75,14.66-15.43,13.94-1.96-.13-4.2-.96-5.84-.25-8.76,3.78-9.83-1.51-9.72-8.54,.04-2.46,0-4.92,0-5.53q-.5-16.61,13.52-17.59Zm-63.34,11.7c.9-13.96,.97-13.96,14.11-14.06,4.35,.39,8.77,1.49,13.03,1.02,10.38-1.15,11.99,5.19,11.43,13.6-1.45,21.86-13.84,29.25-33.11,20.07-3.53-1.68-5.37-4.06-5.45-7.97-.09-4.22-.28-8.46-.01-12.66Zm-52.09,6.93c2.55-7.61,2.38-15.16,2.3-22.85-.07-6.96,2.91-9.53,9.39-7.59,8.05,2.42,16.31,4.24,24.15,7.24,8.83,3.38,2,11.94,4.43,16.13,0,23.74-.94,24.51-21.73,19.42-3.91-.96-7.9-1.56-11.81-2.51-4.94-1.21-8.36-4.97-6.73-9.83Zm-42.54-42.1c.49-3.4,3.06-2.46,5.53-1.61,7.67,2.62,15.37,5.21,23.2,7.23,6.19,1.59,5.2,6.23,4.9,10.71-.6,8.07-.57,16.26-1.96,24.18-2.07,11.82-12.67,11.28-20.63,13.02-7.25,1.58-13.41-2.14-14.77-10.74-2.3-14.55,1.69-28.61,3.73-42.8Z"/>
</svg>