<?xml version="1.0" encoding="UTF-8" standalone="no"?>
<!-- Created with Inkscape (http://www.inkscape.org/) -->

<svg
   width="125mm"
   height="125mm"
   viewBox="0 0 125 125"
   version="1.1"
   id="svg1"
   inkscape:version="1.3.2 (091e20ef0f, 2023-11-25, custom)"
   sodipodi:docname="soustik slint.svg"
   inkscape:export-filename="soustik.png"
   inkscape:export-xdpi="96"
   inkscape:export-ydpi="96"
   xmlns:inkscape="http://www.inkscape.org/namespaces/inkscape"
   xmlns:sodipodi="http://sodipodi.sourceforge.net/DTD/sodipodi-0.dtd"
   xmlns="http://www.w3.org/2000/svg"
   xmlns:svg="http://www.w3.org/2000/svg">
  <sodipodi:namedview
     id="namedview1"
     pagecolor="#ffffff"
     bordercolor="#000000"
     borderopacity="0.25"
     inkscape:showpageshadow="2"
     inkscape:pageopacity="0.0"
     inkscape:pagecheckerboard="0"
     inkscape:deskcolor="#d1d1d1"
     inkscape:document-units="mm"
     showgrid="true"
     inkscape:zoom="0.93778196"
     inkscape:cx="10.66346"
     inkscape:cy="421.73983"
     inkscape:window-width="3320"
     inkscape:window-height="1407"
     inkscape:window-x="0"
     inkscape:window-y="0"
     inkscape:window-maximized="1"
     inkscape:current-layer="layer1">
    <inkscape:grid
       id="grid1"
       units="mm"
       originx="0"
       originy="0"
       spacingx="0.99999998"
       spacingy="0.99999998"
       empcolor="#0099e5"
       empopacity="0.30196078"
       color="#0099e5"
       opacity="0.14901961"
       empspacing="10"
       dotted="false"
       gridanglex="30"
       gridanglez="30"
       visible="true" />
  </sodipodi:namedview>
  <defs
     id="defs1" />
  <g
     inkscape:label="Layer 1"
     inkscape:groupmode="layer"
     id="layer1"
     transform="translate(2.3430852,2.76458)">
    <path
       id="path1"
       style="display:none;fill:#00ff00;stroke-width:49.9999"
       d="M 59.999955,119.99991 A 60,60 0 0 1 0.31419271,64.391935 c 0.029055,-0.307932 0.056498,-0.615997 0.0852661,-0.923975 0.0330053,-0.08315 0.0651538,-0.166655 0.098702,-0.249597 0.20778206,-0.54575 0.42491634,-1.088261 0.62735189,-1.636076 0.270501,-0.723732 0.5824869,-1.429866 0.9110555,-2.129069 0.3546689,-0.748829 0.7164771,-1.495971 1.1404989,-2.208651 0.3942077,-0.643833 0.8179803,-1.269189 1.2572876,-1.883089 0.4346012,-0.592082 0.8851328,-1.174694 1.3802775,-1.717724 0.4753401,-0.514614 0.9556649,-1.024276 1.4304036,-1.539441 0.4993075,-0.532841 0.9831962,-1.081594 1.4309204,-1.658814 0.280851,-0.384346 0.5553384,-0.77364 0.81132,-1.175122 0.2241508,-0.339778 0.4508044,-0.6804 0.6304528,-1.046448 0.124999,-0.270571 0.226881,-0.548278 0.306958,-0.832507 0.55065,0.134453 0.998912,0.03152 1.51722,-0.338997 0.209808,-0.149984 0.336868,-0.376032 0.47594,-0.583427 0.01049,-0.01822 0.01588,-0.03795 0.02584,-0.05633 1.705719,0.470261 2.820053,-1.516764 0.79375,-2.803446 C 13.108359,43.527262 13.02122,43.3874 12.894305,43.30123 12.644838,43.089112 12.394331,42.876344 12.116058,42.702301 11.931725,42.584083 11.744451,42.470518 11.56312,42.3478 11.166285,42.048682 10.818641,41.690117 10.46603,41.34166 9.9978457,40.857698 9.5266421,40.374529 9.0883361,39.863197 9.0686671,39.457731 9.0510581,39.052222 9.0516461,38.646217 9.0426361,37.758986 9.0312601,36.871749 9.0030701,35.984881 8.9765791,35.155738 8.9393191,34.326754 8.9291731,33.497178 8.9052701,32.616416 8.8736221,31.735295 8.7999821,30.857029 8.7591861,30.394205 8.7150861,29.929206 8.644436,29.469 A 60,60 0 0 1 59.999957,0 a 60,60 0 0 1 59.999953,59.999953 60,60 0 0 1 -0.03,0.415478 c -0.0729,0.06002 -0.14279,0.117673 -0.22479,0.183452 -0.4355,0.506378 -0.78378,1.082225 -1.12552,1.654162 -0.4003,0.722224 -0.76901,1.461714 -1.13688,2.200899 -0.24401,0.477764 -0.49202,0.952662 -0.71055,1.442806 -0.13836,0.30787 -0.27596,0.616137 -0.38757,0.934827 -0.0748,0.19942 -0.13047,0.404836 -0.19327,0.608232 -0.037,0.119786 -0.0492,0.225586 -0.0729,0.337964 -0.18455,0.279849 -0.33681,0.636841 -0.4346,1.075903 -0.19326,0.867971 -0.43222,1.724784 -0.65939,2.584338 -0.71302,-0.480579 -1.86603,-0.01639 -2.33887,1.62264 -0.1481,0.513373 -0.36937,1.002522 -0.5948,1.485698 -0.0443,0.09282 -0.0935,0.183226 -0.13797,0.275952 -0.36856,0.05282 -0.7836,0.213017 -1.22474,0.51263 -0.11084,0.0753 -0.22361,0.148299 -0.33331,0.225309 -0.35197,0.223428 -0.70536,0.444092 -1.06143,0.660942 -0.41306,0.258889 -0.84008,0.49486 -1.25832,0.745174 -0.535,0.318473 -1.08133,0.617205 -1.61437,0.938961 -0.541,0.32082 -1.08169,0.6418 -1.62109,0.965316 -0.11979,0.07184 -0.23021,0.146436 -0.33228,0.222725 h -5.2e-4 c -0.1033,-0.05334 -0.20269,-0.113891 -0.30644,-0.166398 -2.55511,-1.293128 -3.77093,1.31348 -1.22318,2.621028 0.76794,0.394123 1.52424,0.809132 2.27376,1.237134 0.61749,0.343428 1.21914,0.724816 1.72444,1.222148 0.33851,0.342501 0.59909,0.745677 0.82734,1.166854 0.23328,0.473903 0.43664,0.96198 0.65164,1.444356 0.0791,0.17111 0.13504,0.351711 0.20671,0.526066 -0.0588,0.185942 -0.11426,0.372778 -0.16692,0.560689 -0.0945,0.373109 -0.16859,0.750482 -0.22789,1.130681 -0.0502,0.330959 -0.0739,0.665355 -0.091,0.999422 -0.015,0.286409 -0.0195,0.572469 -0.006,0.858862 0.005,0.05357 0.011,0.107144 0.016,0.160714 0.0657,0.663301 0.27615,1.154931 0.55552,1.48363 -0.10086,0.190438 -0.19913,0.38222 -0.29921,0.573092 -0.1459,0.274964 -0.28006,0.555763 -0.41393,0.836641 -0.0568,0.106376 -0.11539,0.211743 -0.17001,0.319361 -0.11628,0.233085 -0.22499,0.469646 -0.33538,0.705383 -6.8e-4,0.0014 -10e-4,0.0027 -0.002,0.0041 -5e-5,2.26e-4 -4.6e-4,9.76e-4 -5.1e-4,0.001 -0.0572,0.122097 -0.11714,0.242861 -0.17364,0.365352 -0.0275,0.0596 -0.13398,0.140187 -0.0811,0.179317 0.22539,0.167325 0.45779,0.32433 0.69298,0.477491 A 60,60 0 0 1 59.999955,119.99991 Z M 119.56583,61.778658 c -0.001,-0.0081 -0.001,-0.01689 -0.003,-0.02481 -0.003,-0.01386 -0.008,-0.05362 10e-4,-0.04237 0.009,0.01277 0.002,0.03201 0.003,0.04806 -6e-5,0.0064 -4.5e-4,0.01275 -5.1e-4,0.01912 z M 1.2340332,54.917578 c 0.00249,-0.02069 0.00525,-0.04133 0.00775,-0.06201 0.00794,0.0031 0.017537,0.0079 0.025321,0.01085 -0.011177,0.01695 -0.021926,0.03419 -0.033073,0.05116 z" />
    <path
       style="opacity:1;fill:none;stroke:#000000;stroke-width:4;stroke-linecap:round;stroke-linejoin:bevel;stroke-dasharray:none;stroke-dashoffset:0;stroke-opacity:1;paint-order:fill markers stroke"
       d="m 39.999999,39.999999 c 0,0 20.642154,9.370917 60,10e-7 C 121,35 99.999999,0 60,0 4.0802244,0 -30,80 39.999999,79.999998"
       id="path3"
       sodipodi:nodetypes="cssc" />
    <path
       style="opacity:1;fill:none;stroke:#000000;stroke-width:4;stroke-linecap:round;stroke-linejoin:miter;stroke-miterlimit:0.1;stroke-dasharray:none;stroke-dashoffset:0;stroke-opacity:1;paint-order:markers stroke fill"
       d="M 15.533014,75.281528 C -4.4669914,80.150678 19.127398,119.47084 59.127409,119.47084 115.04724,119.47084 140,50 99.999999,40"
       id="path4"
       sodipodi:nodetypes="csc" />
    <path
       id="ellipse6"
       style="opacity:1;fill:#000000;stroke-width:1.12468;stroke-linecap:round;stroke-linejoin:bevel;paint-order:fill markers stroke"
       d="m 68.256721,24.15329 c 1.183126,8.990002 1.487589,6.445931 -3.912657,6.763808 -5.197912,0.305965 -6.327489,3.853578 -7.181027,-5.925983 -0.399661,-4.57919 -0.742395,-11.042282 3.697562,-11.445308 3.059581,-0.277725 6.571544,4.341913 7.396122,10.607483 z"
       sodipodi:nodetypes="sssss" />
    <g
       id="g1">
      <path
         style="opacity:1;fill:none;fill-opacity:1;stroke:#000000;stroke-width:2.5;stroke-linecap:round;stroke-linejoin:miter;stroke-miterlimit:0;stroke-dasharray:none;stroke-dashoffset:0;stroke-opacity:1;paint-order:markers stroke fill"
         d="m 54.874532,43.686437 c 0,0 26.52856,11.125514 17.585432,40.916349 C 68.653013,97.284282 100.66317,93.158875 105.21105,72.326508 108.12971,58.95706 101.84098,45.775806 91.613883,41.75534"
         id="path6"
         sodipodi:nodetypes="cssc" />
      <path
         style="opacity:1;fill:none;fill-opacity:1;stroke:#000000;stroke-width:1.7;stroke-linecap:round;stroke-linejoin:miter;stroke-miterlimit:0;stroke-dasharray:none;stroke-dashoffset:0;stroke-opacity:1;paint-order:markers stroke fill"
         d="m 84.617801,49.964607 c 10.339484,15.157421 4.598196,25.472288 4.598196,25.472288"
         id="path7"
         sodipodi:nodetypes="cc" />
    </g>
    <path
       style="opacity:1;fill:none;fill-opacity:1;stroke:#000000;stroke-width:4;stroke-linecap:round;stroke-linejoin:miter;stroke-miterlimit:0;stroke-dasharray:none;stroke-dashoffset:0;stroke-opacity:1;paint-order:markers stroke fill"
       d="m 39.178068,33.99807 c 0,0 1.967608,5.710396 -3.486423,10.07197"
       id="path8" />
    <path
       style="opacity:1;fill:none;fill-opacity:1;stroke:#000000;stroke-width:4;stroke-linecap:round;stroke-linejoin:miter;stroke-miterlimit:0;stroke-dasharray:none;stroke-dashoffset:0;stroke-opacity:1;paint-order:markers stroke fill"
       d="m 42.803152,85.03453 c 0,0 -4.573418,-4.44808 -0.831757,-9.189387"
       id="path9" />
    <path
       style="display:none;fill:#000000;fill-opacity:0.1;stroke:none;stroke-width:1;stroke-linecap:square;stroke-linejoin:bevel;stroke-miterlimit:0;stroke-dasharray:none;stroke-opacity:1;paint-order:stroke markers fill"
       d="m 42.656915,84.235421 c 0,0 -17.837783,1.59921 -31,-6 -2.0861108,-1.204416 5.529167,-2.000001 5.529167,-2.000001 l 24.000001,4 z"
       id="path10"
       sodipodi:nodetypes="csccc" />
<!--    <path-->
<!--       id="path11"-->
<!--       style="fill:none;stroke:#000000;stroke-width:1;stroke-linecap:square;stroke-linejoin:bevel;stroke-miterlimit:0;stroke-dasharray:none;stroke-opacity:1;paint-order:stroke markers fill"-->
<!--       d="m 60.156719,54.663398 c -1.675611,0 -3.033784,6.05389 -3.033784,7.10987 0,1.055965 1.358173,3.034174 3.033784,3.034174 1.675611,0 3.034175,-1.978209 3.034175,-3.034174 0,-1.05598 -1.358564,-7.10987 -3.034175,-7.10987 z"-->
<!--       sodipodi:nodetypes="sssss" />-->
    <path
       id="path2"
       style="opacity:1;fill:#000000;stroke-width:1.03148;stroke-linecap:round;stroke-linejoin:bevel;paint-order:fill markers stroke"
       d="m 89.127137,23.35928 c 1.618332,8.091024 1.12028,5.718239 -2.922364,5.960179 -4.805415,0.28759 -6.12142,4.371072 -6.910596,-4.52566 -0.369524,-4.165813 -1.51554,-9.941957 2.525165,-10.75402 2.366173,-0.475531 5.920806,2.385102 7.307795,9.319501 z"
       sodipodi:nodetypes="sssss" />
  </g>
</svg>
